<svg width="83" height="61" viewBox="0 0 83 61" fill="none" xmlns="http://www.w3.org/2000/svg" role="img" aria-label="Macro Evidence">
<path d="M1.9381 58V50.58H3.2684L6.2258 55.4242L5.6852 55.4295L8.5207 50.58H9.8351V58H8.4942L8.5154 52.382L8.7698 52.4721L6.3742 56.4683H5.4043L2.9504 52.4721L3.1783 52.382L3.1995 58H1.9381ZM13.0297 58.159C12.6693 58.159 12.3495 58.0901 12.0704 57.9523C11.7912 57.8145 11.5722 57.6202 11.4132 57.3693C11.2542 57.1149 11.1747 56.8146 11.1747 56.4683C11.1747 56.1715 11.2489 55.9065 11.3973 55.6733C11.5457 55.4401 11.7736 55.2475 12.081 55.0956C12.3884 54.9401 12.7806 54.8359 13.2576 54.7829C13.7381 54.7299 14.307 54.737 14.9642 54.8041L14.9854 55.6998C14.5543 55.6327 14.178 55.6026 13.8565 55.6097C13.5349 55.6168 13.2682 55.6539 13.0562 55.721C12.8477 55.7881 12.6905 55.88 12.5845 55.9966C12.482 56.1132 12.4308 56.2492 12.4308 56.4047C12.4308 56.6379 12.5156 56.8181 12.6852 56.9453C12.8548 57.069 13.0862 57.1308 13.3795 57.1308C13.6303 57.1308 13.8547 57.0849 14.0526 56.993C14.254 56.9011 14.413 56.7722 14.5296 56.6061C14.6462 56.4365 14.7045 56.2369 14.7045 56.0072V54.6663C14.7045 54.4437 14.6568 54.2511 14.5614 54.0886C14.4695 53.9225 14.3282 53.7953 14.1374 53.707C13.9466 53.6151 13.701 53.5692 13.4007 53.5692C13.1251 53.5692 12.8512 53.6116 12.5792 53.6964C12.3106 53.7777 12.058 53.9049 11.8213 54.078L11.4556 53.1081C11.7912 52.8855 12.1446 52.7265 12.5156 52.6311C12.8866 52.5357 13.2452 52.488 13.5915 52.488C14.0861 52.488 14.5137 52.5657 14.8741 52.7212C15.238 52.8767 15.5171 53.1152 15.7115 53.4367C15.9093 53.7547 16.0083 54.1593 16.0083 54.6504V58H14.8105V57.3958C14.6338 57.6396 14.39 57.8286 14.0791 57.9629C13.7681 58.0936 13.4183 58.159 13.0297 58.159ZM19.9676 58.159C19.4058 58.159 18.9059 58.0371 18.4677 57.7933C18.0331 57.546 17.6904 57.2121 17.4395 56.7916C17.1887 56.3676 17.0632 55.8871 17.0632 55.35C17.0632 54.9437 17.1374 54.5709 17.2858 54.2317C17.4342 53.889 17.6427 53.5922 17.9112 53.3413C18.1798 53.0869 18.4942 52.8908 18.8546 52.753C19.2186 52.6117 19.6143 52.541 20.0418 52.541C20.4128 52.541 20.7573 52.5905 21.0753 52.6894C21.3933 52.7883 21.6848 52.9403 21.9498 53.1452L21.3191 54.1681C21.1531 54.0197 20.964 53.9102 20.752 53.8395C20.5436 53.7653 20.3245 53.7282 20.0948 53.7282C19.7486 53.7282 19.45 53.7918 19.1991 53.919C18.9518 54.0462 18.761 54.2299 18.6267 54.4702C18.4925 54.7105 18.4253 55.002 18.4253 55.3447C18.4253 55.8535 18.5737 56.2528 18.8705 56.5425C19.1709 56.8287 19.579 56.9718 20.0948 56.9718C20.3528 56.9718 20.5966 56.9241 20.8262 56.8287C21.0559 56.7333 21.2555 56.6026 21.4251 56.4365L22.0293 57.4647C21.7396 57.6802 21.4163 57.8498 21.0594 57.9735C20.7026 58.0972 20.3386 58.159 19.9676 58.159ZM23.0465 58V52.7H24.4033V53.3943C24.587 53.0834 24.8167 52.8625 25.0923 52.7318C25.3714 52.6011 25.6718 52.5357 25.9933 52.5357C26.1064 52.5357 26.2106 52.541 26.306 52.5516C26.4014 52.5622 26.4933 52.5781 26.5816 52.5993L26.412 53.9985C26.3025 53.9596 26.1876 53.9314 26.0675 53.9137C25.9509 53.8925 25.8343 53.8819 25.7177 53.8819C25.3361 53.8819 25.0216 53.9967 24.7743 54.2264C24.527 54.4525 24.4033 54.7705 24.4033 55.1804V58H23.0465ZM29.8688 58.159C29.3034 58.159 28.8017 58.0318 28.3636 57.7774C27.929 57.5195 27.588 57.1785 27.3407 56.7545C27.0933 56.327 26.9697 55.8588 26.9697 55.35C26.9697 54.9755 27.0403 54.6186 27.1817 54.2794C27.323 53.9402 27.5226 53.6416 27.7806 53.3837C28.042 53.1222 28.3494 52.9173 28.7028 52.7689C29.0561 52.617 29.4448 52.541 29.8688 52.541C30.4306 52.541 30.9288 52.6682 31.3634 52.9226C31.8015 53.177 32.1442 53.518 32.3916 53.9455C32.6424 54.373 32.7679 54.8412 32.7679 55.35C32.7679 55.7245 32.6954 56.0814 32.5506 56.4206C32.4092 56.7563 32.2096 57.0548 31.9517 57.3163C31.6937 57.5778 31.3881 57.7845 31.0348 57.9364C30.6814 58.0848 30.2928 58.159 29.8688 58.159ZM29.8635 56.9718C30.1638 56.9718 30.4306 56.9064 30.6638 56.7757C30.9005 56.6414 31.086 56.4542 31.2203 56.2139C31.3545 55.9701 31.4217 55.6821 31.4217 55.35C31.4217 55.0179 31.3545 54.7299 31.2203 54.4861C31.086 54.2423 30.9023 54.055 30.6691 53.9243C30.4359 53.7936 30.1691 53.7282 29.8688 53.7282C29.5684 53.7282 29.2999 53.7936 29.0632 53.9243C28.83 54.055 28.6462 54.2423 28.512 54.4861C28.3812 54.7299 28.3159 55.0179 28.3159 55.35C28.3159 55.6821 28.383 55.9701 28.5173 56.2139C28.6515 56.4542 28.8353 56.6414 29.0685 56.7757C29.3017 56.9064 29.5667 56.9718 29.8635 56.9718ZM36.5848 58V50.58H41.5191V51.7884H37.9628V53.5851H41.005V54.714H37.9628V56.781H41.5562V58H36.5848ZM44.2975 58L42.3524 52.7H43.8258L45.1773 56.834H44.9971L46.3221 52.7H47.7584L45.861 58H44.2975ZM48.6666 58V52.7H50.0234V58H48.6666ZM49.345 51.8096C49.1118 51.8096 48.9104 51.7354 48.7408 51.587C48.5712 51.4386 48.4864 51.2425 48.4864 50.9987C48.4864 50.7549 48.5712 50.5588 48.7408 50.4104C48.9104 50.262 49.1118 50.1878 49.345 50.1878C49.5782 50.1878 49.7796 50.262 49.9492 50.4104C50.1188 50.5588 50.2036 50.7549 50.2036 50.9987C50.2036 51.2425 50.1188 51.4386 49.9492 51.587C49.7796 51.7354 49.5782 51.8096 49.345 51.8096ZM53.7906 58.159C53.2747 58.159 52.8171 58.0389 52.4179 57.7986C52.0186 57.5583 51.7059 57.2262 51.4798 56.8022C51.2536 56.3782 51.1406 55.8941 51.1406 55.35C51.1406 54.9578 51.2042 54.5921 51.3314 54.2529C51.4621 53.9102 51.6458 53.6116 51.8826 53.3572C52.1228 53.0993 52.4055 52.8996 52.7306 52.7583C53.0556 52.6134 53.416 52.541 53.8118 52.541C54.2676 52.541 54.6668 52.6329 55.0096 52.8166C55.3523 52.9968 55.6438 53.253 55.8841 53.5851L55.5873 53.8925V50.368H56.9441V58H55.7463V56.6909L55.9371 56.9983C55.7569 57.334 55.4883 57.6113 55.1315 57.8304C54.7746 58.0495 54.3276 58.159 53.7906 58.159ZM54.0397 56.9718C54.3365 56.9718 54.6015 56.9064 54.8347 56.7757C55.0714 56.6414 55.2569 56.4542 55.3912 56.2139C55.5254 55.9701 55.5926 55.6821 55.5926 55.35C55.5926 55.0179 55.5254 54.7299 55.3912 54.4861C55.2569 54.2423 55.0732 54.055 54.84 53.9243C54.6068 53.7936 54.34 53.7282 54.0397 53.7282C53.7393 53.7282 53.4708 53.7936 53.2341 53.9243C53.0009 54.055 52.8171 54.2423 52.6829 54.4861C52.5521 54.7299 52.4868 55.0179 52.4868 55.35C52.4868 55.6821 52.5539 55.9701 52.6882 56.2139C52.8224 56.4542 53.0062 56.6414 53.2394 56.7757C53.4726 56.9064 53.7393 56.9718 54.0397 56.9718ZM60.9596 58.159C60.3836 58.159 59.8784 58.0424 59.4438 57.8092C59.0092 57.5725 58.67 57.2439 58.4262 56.8234C58.1859 56.4029 58.0658 55.9136 58.0658 55.3553C58.0658 54.9454 58.1347 54.5691 58.2725 54.2264C58.4138 53.8837 58.6117 53.5869 58.8661 53.336C59.124 53.0816 59.4243 52.8855 59.7671 52.7477C60.1133 52.6099 60.4914 52.541 60.9013 52.541C61.3465 52.541 61.744 52.6205 62.0938 52.7795C62.4436 52.935 62.7333 53.1558 62.963 53.442C63.1962 53.7247 63.3587 54.0568 63.4506 54.4384C63.546 54.8165 63.5583 55.2299 63.4877 55.6786H59.3431C59.3395 55.9577 59.4049 56.2015 59.5392 56.41C59.677 56.6185 59.8713 56.7828 60.1222 56.9029C60.3766 57.0195 60.6751 57.0778 61.0179 57.0778C61.3217 57.0778 61.6132 57.0336 61.8924 56.9453C62.1715 56.857 62.4312 56.7262 62.6715 56.5531L63.1485 57.5018C62.9824 57.6361 62.7757 57.7527 62.5284 57.8516C62.281 57.9505 62.0196 58.0265 61.744 58.0795C61.4719 58.1325 61.2104 58.159 60.9596 58.159ZM59.4226 54.714H62.1733C62.1627 54.3571 62.0443 54.078 61.8182 53.8766C61.592 53.6717 61.2758 53.5692 60.8695 53.5692C60.4667 53.5692 60.1345 53.6717 59.8731 53.8766C59.6116 54.078 59.4614 54.3571 59.4226 54.714ZM64.6494 58V52.7H66.0062V53.336C66.2182 53.0569 66.4656 52.8555 66.7482 52.7318C67.0344 52.6046 67.333 52.541 67.6439 52.541C68.1315 52.541 68.5343 52.6382 68.8523 52.8325C69.1739 53.0268 69.4124 53.2759 69.5678 53.5798C69.7233 53.8837 69.801 54.2017 69.801 54.5338V58H68.4442V54.9578C68.4442 54.5974 68.34 54.3112 68.1315 54.0992C67.9231 53.8872 67.6316 53.7812 67.257 53.7812C67.0132 53.7812 66.7959 53.836 66.6051 53.9455C66.4179 54.0515 66.2712 54.2017 66.1652 54.396C66.0592 54.5903 66.0062 54.8147 66.0062 55.0691V58H64.6494ZM73.775 58.159C73.2132 58.159 72.7133 58.0371 72.2751 57.7933C71.8405 57.546 71.4978 57.2121 71.2469 56.7916C70.9961 56.3676 70.8706 55.8871 70.8706 55.35C70.8706 54.9437 70.9448 54.5709 71.0932 54.2317C71.2416 53.889 71.4501 53.5922 71.7186 53.3413C71.9872 53.0869 72.3016 52.8908 72.662 52.753C73.026 52.6117 73.4217 52.541 73.8492 52.541C74.2202 52.541 74.5647 52.5905 74.8827 52.6894C75.2007 52.7883 75.4922 52.9403 75.7572 53.1452L75.1265 54.1681C74.9605 54.0197 74.7714 53.9102 74.5594 53.8395C74.351 53.7653 74.1319 53.7282 73.9022 53.7282C73.556 53.7282 73.2574 53.7918 73.0065 53.919C72.7592 54.0462 72.5684 54.2299 72.4341 54.4702C72.2999 54.7105 72.2327 55.002 72.2327 55.3447C72.2327 55.8535 72.3811 56.2528 72.6779 56.5425C72.9783 56.8287 73.3864 56.9718 73.9022 56.9718C74.1602 56.9718 74.404 56.9241 74.6336 56.8287C74.8633 56.7333 75.0629 56.6026 75.2325 56.4365L75.8367 57.4647C75.547 57.6802 75.2237 57.8498 74.8668 57.9735C74.51 58.0972 74.146 58.159 73.775 58.159ZM79.199 58.159C78.6231 58.159 78.1178 58.0424 77.6832 57.8092C77.2486 57.5725 76.9094 57.2439 76.6656 56.8234C76.4254 56.4029 76.3052 55.9136 76.3052 55.3553C76.3052 54.9454 76.3741 54.5691 76.5119 54.2264C76.6533 53.8837 76.8511 53.5869 77.1055 53.336C77.3635 53.0816 77.6638 52.8855 78.0065 52.7477C78.3528 52.6099 78.7309 52.541 79.1407 52.541C79.5859 52.541 79.9834 52.6205 80.3332 52.7795C80.683 52.935 80.9728 53.1558 81.2024 53.442C81.4356 53.7247 81.5982 54.0568 81.69 54.4384C81.7854 54.8165 81.7978 55.2299 81.7271 55.6786H77.5825C77.579 55.9577 77.6444 56.2015 77.7786 56.41C77.9164 56.6185 78.1108 56.7828 78.3616 56.9029C78.616 57.0195 78.9146 57.0778 79.2573 57.0778C79.5612 57.0778 79.8527 57.0336 80.1318 56.9453C80.411 56.857 80.6707 56.7262 80.9109 56.5531L81.3879 57.5018C81.2219 57.6361 81.0152 57.7527 80.7678 57.8516C80.5205 57.9505 80.259 58.0265 79.9834 58.0795C79.7114 58.1325 79.4499 58.159 79.199 58.159ZM77.662 54.714H80.4127C80.4021 54.3571 80.2838 54.078 80.0576 53.8766C79.8315 53.6717 79.5153 53.5692 79.1089 53.5692C78.7061 53.5692 78.374 53.6717 78.1125 53.8766C77.8511 54.078 77.7009 54.3571 77.662 54.714Z" fill="#717171"/>
<path d="M1.75475 47V2.2H9.69075L24.9868 25.944L40.2828 2.2H48.0908V47H40.4108V14.296L24.9228 37.72L9.43475 14.36V47H1.75475Z" fill="#717171"/>
<rect x="52" y="14" width="7" height="33" fill="#99B7DD"/>
<rect x="63" y="23" width="7" height="24" fill="#99B7DD"/>
<rect x="74" y="32" width="7" height="15" fill="#99B7DD"/>
</svg>
